<svg xmlns="http://www.w3.org/2000/svg" viewBox="0 0 800 560" role="img" aria-labelledby="title desc">
  <title id="title">Ecommerce platform illustration</title>
  <desc id="desc">A storefront dashboard with products, a hero banner, and a shopping cart summary.</desc>
  <defs>
    <linearGradient id="bg" x1="0" x2="1" y1="0" y2="1">
      <stop offset="0%" stop-color="#10253f"/>
      <stop offset="100%" stop-color="#123b56"/>
    </linearGradient>
    <linearGradient id="hero" x1="0" x2="1" y1="0" y2="1">
      <stop offset="0%" stop-color="#7ec6ff"/>
      <stop offset="100%" stop-color="#66f6db"/>
    </linearGradient>
  </defs>
  <rect width="800" height="560" rx="34" fill="url(#bg)"/>
  <circle cx="118" cy="92" r="90" fill="#7ec6ff" opacity="0.12"/>
  <rect x="54" y="52" width="692" height="456" rx="28" fill="#0d1c30" opacity="0.95" stroke="#ffffff" stroke-opacity="0.08"/>
  <rect x="78" y="76" width="644" height="34" rx="17" fill="#ffffff" fill-opacity="0.06"/>
  <circle cx="106" cy="93" r="6" fill="#7ec6ff"/>
  <circle cx="128" cy="93" r="6" fill="#66f6db"/>
  <circle cx="150" cy="93" r="6" fill="#f5b971"/>
  <rect x="294" y="84" width="220" height="18" rx="9" fill="#ffffff" fill-opacity="0.08"/>
  <rect x="538" y="84" width="64" height="18" rx="9" fill="#ffffff" fill-opacity="0.08"/>
  <rect x="614" y="84" width="78" height="18" rx="9" fill="#ffffff" fill-opacity="0.08"/>

  <rect x="96" y="136" width="432" height="120" rx="24" fill="url(#hero)" opacity="0.95"/>
  <text x="124" y="178" fill="#0f2940" font-size="16" font-family="Arial, sans-serif">New collection</text>
  <text x="124" y="214" fill="#08111d" font-size="34" font-family="Arial, sans-serif">Build a storefront</text>
  <text x="124" y="246" fill="#12314a" font-size="16" font-family="Arial, sans-serif">Browse products, manage stock, and ship faster.</text>
  <rect x="412" y="166" width="88" height="28" rx="14" fill="#0f2940" fill-opacity="0.18"/>
  <text x="434" y="185" fill="#062031" font-size="12" font-family="Arial, sans-serif">Shop now</text>

  <rect x="548" y="136" width="154" height="348" rx="24" fill="#ffffff" fill-opacity="0.05" stroke="#ffffff" stroke-opacity="0.06"/>
  <text x="574" y="170" fill="#dff1ff" font-size="18" font-family="Arial, sans-serif">Cart</text>
  <rect x="572" y="192" width="106" height="64" rx="18" fill="#ffffff" fill-opacity="0.05"/>
  <rect x="584" y="206" width="44" height="38" rx="12" fill="url(#hero)" opacity="0.65"/>
  <text x="638" y="220" fill="#ffffff" font-size="13" font-family="Arial, sans-serif">Headset</text>
  <text x="638" y="240" fill="#9fc7d7" font-size="12" font-family="Arial, sans-serif">$89</text>
  <rect x="572" y="270" width="106" height="64" rx="18" fill="#ffffff" fill-opacity="0.05"/>
  <rect x="584" y="284" width="44" height="38" rx="12" fill="url(#hero)" opacity="0.45"/>
  <text x="638" y="298" fill="#ffffff" font-size="13" font-family="Arial, sans-serif">Watch</text>
  <text x="638" y="318" fill="#9fc7d7" font-size="12" font-family="Arial, sans-serif">$124</text>
  <rect x="572" y="356" width="106" height="14" rx="7" fill="#ffffff" fill-opacity="0.06"/>
  <rect x="572" y="384" width="106" height="14" rx="7" fill="#ffffff" fill-opacity="0.06"/>
  <rect x="572" y="430" width="106" height="30" rx="15" fill="url(#hero)" opacity="0.9"/>

  <rect x="96" y="280" width="132" height="172" rx="22" fill="#ffffff" fill-opacity="0.05" stroke="#ffffff" stroke-opacity="0.06"/>
  <rect x="116" y="304" width="92" height="70" rx="18" fill="url(#hero)" opacity="0.55"/>
  <circle cx="162" cy="338" r="24" fill="#ffffff" fill-opacity="0.28"/>
  <text x="116" y="402" fill="#ffffff" font-size="16" font-family="Arial, sans-serif">Smart Lamp</text>
  <text x="116" y="426" fill="#9fc7d7" font-size="13" font-family="Arial, sans-serif">$64</text>

  <rect x="246" y="280" width="132" height="172" rx="22" fill="#ffffff" fill-opacity="0.05" stroke="#ffffff" stroke-opacity="0.06"/>
  <rect x="266" y="304" width="92" height="70" rx="18" fill="url(#hero)" opacity="0.48"/>
  <rect x="294" y="320" width="36" height="36" rx="12" fill="#ffffff" fill-opacity="0.28"/>
  <text x="266" y="402" fill="#ffffff" font-size="16" font-family="Arial, sans-serif">Sneakers</text>
  <text x="266" y="426" fill="#9fc7d7" font-size="13" font-family="Arial, sans-serif">$92</text>

  <rect x="396" y="280" width="132" height="172" rx="22" fill="#ffffff" fill-opacity="0.05" stroke="#ffffff" stroke-opacity="0.06"/>
  <rect x="416" y="304" width="92" height="70" rx="18" fill="url(#hero)" opacity="0.38"/>
  <rect x="442" y="318" width="40" height="42" rx="14" fill="#ffffff" fill-opacity="0.24"/>
  <text x="416" y="402" fill="#ffffff" font-size="16" font-family="Arial, sans-serif">Camera</text>
  <text x="416" y="426" fill="#9fc7d7" font-size="13" font-family="Arial, sans-serif">$249</text>
</svg>
